<svg width="53" height="32" viewBox="0 0 53 32" fill="none" xmlns="http://www.w3.org/2000/svg">
<path d="M26.032 3.4H24.192V1.8H29.632V3.4H27.792V13H26.032V3.4Z" fill="black"/>
<path d="M30.4841 1.8H32.2441V6.36H34.1321V1.8H35.8921V13H34.1321V7.96H32.2441V13H30.4841V1.8Z" fill="black"/>
<path d="M37.2029 1.8H38.9629V13H37.2029V1.8Z" fill="black"/>
<path d="M40.281 1.8H42.489L44.201 8.504H44.233V1.8H45.801V13H43.993L41.881 4.824H41.849V13H40.281V1.8Z" fill="black"/>
<path d="M47.1091 1.8H48.8691V6.36H50.7571V1.8H52.5171V13H50.7571V7.96H48.8691V13H47.1091V1.8Z" fill="black"/>
<path d="M24.656 17.8H27.344C28.2187 17.8 28.8747 18.0347 29.312 18.504C29.7493 18.9733 29.968 19.6613 29.968 20.568V26.232C29.968 27.1387 29.7493 27.8267 29.312 28.296C28.8747 28.7653 28.2187 29 27.344 29H24.656V17.8ZM27.312 27.4C27.6 27.4 27.8187 27.3147 27.968 27.144C28.128 26.9733 28.208 26.696 28.208 26.312V20.488C28.208 20.104 28.128 19.8267 27.968 19.656C27.8187 19.4853 27.6 19.4 27.312 19.4H26.416V27.4H27.312Z" fill="black"/>
<path d="M32.4847 17.8H34.8688L36.6927 29H34.9328L34.6128 26.776V26.808H32.6128L32.2928 29H30.6607L32.4847 17.8ZM34.4048 25.288L33.6208 19.752H33.5887L32.8208 25.288H34.4048Z" fill="black"/>
<path d="M37.5466 17.8H39.7546L41.4666 24.504H41.4986V17.8H43.0666V29H41.2586L39.1466 20.824H39.1146V29H37.5466V17.8Z" fill="black"/>
<path d="M46.8708 29.16C46.0174 29.16 45.3668 28.92 44.9188 28.44C44.4708 27.9493 44.2467 27.2507 44.2467 26.344V20.456C44.2467 19.5493 44.4708 18.856 44.9188 18.376C45.3668 17.8853 46.0174 17.64 46.8708 17.64C47.7241 17.64 48.3748 17.8853 48.8228 18.376C49.2708 18.856 49.4948 19.5493 49.4948 20.456V21.416H47.8307V20.344C47.8307 19.608 47.5268 19.24 46.9188 19.24C46.3108 19.24 46.0068 19.608 46.0068 20.344V26.472C46.0068 27.1973 46.3108 27.56 46.9188 27.56C47.5268 27.56 47.8307 27.1973 47.8307 26.472V24.28H46.9507V22.68H49.4948V26.344C49.4948 27.2507 49.2708 27.9493 48.8228 28.44C48.3748 28.92 47.7241 29.16 46.8708 29.16Z" fill="black"/>
<path fill-rule="evenodd" clip-rule="evenodd" d="M2 0C0.895431 0 0 0.895431 0 2V30C0 31.1046 0.89543 32 2 32H16C17.1046 32 18 31.1046 18 30V2C18 0.895431 17.1046 0 16 0H2ZM6.88235 8.94118C7.15849 8.94118 7.38235 9.16504 7.38235 9.44118V26.0882C7.38235 26.3644 7.60621 26.5882 7.88235 26.5882H10.1176C10.3938 26.5882 10.6176 26.3644 10.6176 26.0882V9.44118C10.6176 9.16503 10.8415 8.94118 11.1176 8.94118H13.5C13.7761 8.94118 14 8.71732 14 8.44118V6.5C14 6.22386 13.7761 6 13.5 6H4.5C4.22386 6 4 6.22386 4 6.5V8.44118C4 8.71732 4.22386 8.94118 4.5 8.94118H6.88235Z" fill="#C49F00"/>
</svg>
